<svg xmlns="http://www.w3.org/2000/svg" viewBox="0 0 81 67"><defs><style>.cls-1{fill:#333;}.cls-2{fill:#87d3f9;}</style></defs><title>bag</title><g id="Слой_2" data-name="Слой 2"><g id="icon"><path class="cls-1" d="M81,60.5A6.5,6.5,0,0,1,74.5,67H6.5A6.5,6.5,0,0,1,0,60.5v-41A6.5,6.5,0,0,1,6.5,13h68A6.5,6.5,0,0,1,81,19.5Zm-3-41A3.5,3.5,0,0,0,74.5,16H6.5A3.5,3.5,0,0,0,3,19.5v41A3.5,3.5,0,0,0,6.5,64h68A3.5,3.5,0,0,0,78,60.5Z"/><path class="cls-1" d="M53.5,11.15A1.5,1.5,0,0,1,52,9.65V3H28V9.65a1.5,1.5,0,0,1-3,0V1.15C25,.32,25.67,0,26.5,0h27c.83,0,1.5.32,1.5,1.15v8.5A1.5,1.5,0,0,1,53.5,11.15Z"/><path class="cls-1" d="M79,32H1a1,1,0,0,1,0-2H79a1,1,0,0,1,0,2Z"/><rect class="cls-2" x="14" y="25.65" width="6" height="10" rx="2" ry="2"/><rect class="cls-2" x="62" y="25.65" width="6" height="10" rx="2" ry="2"/><path class="cls-1" d="M73,22H72a1,1,0,0,1,0-2h1a1,1,0,0,1,0,2Zm-5,0H64a1,1,0,0,1,0-2h4a1,1,0,0,1,0,2Zm-8,0H56a1,1,0,0,1,0-2h4a1,1,0,0,1,0,2Zm-8,0H48a1,1,0,0,1,0-2h4a1,1,0,0,1,0,2Zm-8,0H40a1,1,0,0,1,0-2h4a1,1,0,0,1,0,2Zm-8,0H32a1,1,0,0,1,0-2h4a1,1,0,0,1,0,2Zm-8,0H24a1,1,0,0,1,0-2h4a1,1,0,0,1,0,2Zm-8,0H16a1,1,0,0,1,0-2h4a1,1,0,0,1,0,2Zm-8,0H8a1,1,0,0,1,0-2h4a1,1,0,0,1,0,2Z"/></g></g></svg>