<svg xmlns="http://www.w3.org/2000/svg" viewBox="0 0 77.5 78.06"><defs><style>.cls-1{fill:#333;}.cls-2{fill:#ed8569;}.cls-3{fill:#87d3f9;}</style></defs><title>Ресурс 1</title><g id="Слой_2" data-name="Слой 2"><g id="icon"><path class="cls-1" d="M19.25,35.38a1,1,0,0,1-.9-.57L11.25,20.3,4.15,34.81a1,1,0,0,1-1.8-.87l8-16.36a1,1,0,0,1,1.8,0l8,16.36a1,1,0,0,1-.9,1.44Z"/><path class="cls-1" d="M76,15.06H4a1.5,1.5,0,0,1,0-3H76a1.5,1.5,0,0,1,0,3Z"/><path class="cls-1" d="M58,78.06H20a1.5,1.5,0,0,1,0-3H58a1.5,1.5,0,0,1,0,3Z"/><path class="cls-1" d="M39.8,78a1.5,1.5,0,0,1-1.5-1.5V1.5a1.5,1.5,0,0,1,3,0v75A1.5,1.5,0,0,1,39.8,78Z"/><path class="cls-2" d="M22.5,32.5A11.25,11.25,0,0,1,0,32.5"/><path class="cls-1" d="M74.25,35.38a1,1,0,0,1-.9-.57L66.25,20.3l-7.1,14.51a1,1,0,0,1-1.8-.87l8-16.36a1,1,0,0,1,1.8,0l8,16.36a1,1,0,0,1-.9,1.44Z"/><path class="cls-3" d="M77.5,32.5a11.25,11.25,0,0,1-22.5,0"/><path class="cls-1" d="M44.3,73.5a1,1,0,0,1-1-1v-4a1,1,0,0,1,2,0v4A1,1,0,0,1,44.3,73.5Zm0-8a1,1,0,0,1-1-1v-4a1,1,0,0,1,2,0v4A1,1,0,0,1,44.3,65.5Zm0-8a1,1,0,0,1-1-1v-4a1,1,0,0,1,2,0v4A1,1,0,0,1,44.3,57.5Z"/></g></g></svg>