<svg xmlns="http://www.w3.org/2000/svg" viewBox="0 0 80.04 73.32"><defs><style>.cls-1{fill:#333;}.cls-2{fill:#87d3f9;}.cls-3{fill:#ed8569;}</style></defs><title>Ресурс 1</title><g id="Слой_2" data-name="Слой 2"><g id="icon"><path class="cls-1" d="M78.54,31.32H2A1.7,1.7,0,0,1,.52,30.11a1.65,1.65,0,0,1,.54-1.77L39.35.3a1.49,1.49,0,0,1,1.77,0L79.27,28.16A1.8,1.8,0,0,1,80,29.65,1.65,1.65,0,0,1,78.54,31.32Zm-72-3H73.93L40.24,3.68Z"/><path class="cls-1" d="M78.5,73.32H1.5a1.5,1.5,0,0,1,0-3h77a1.5,1.5,0,0,1,0,3Z"/><path class="cls-1" d="M6,67.47A1.5,1.5,0,0,1,4.47,66V35a1.5,1.5,0,0,1,3,0V66A1.5,1.5,0,0,1,6,67.47Z"/><rect class="cls-2" x="10" y="34.47" width="3" height="32"/><path class="cls-1" d="M74,67.47a1.5,1.5,0,0,1-1.5-1.5V35a1.5,1.5,0,0,1,3,0V66A1.5,1.5,0,0,1,74,67.47Z"/><rect class="cls-2" x="67" y="34.47" width="3" height="32"/><path class="cls-1" d="M32,67.47a1.5,1.5,0,0,1-1.5-1.5V35a1.5,1.5,0,0,1,3,0V66A1.5,1.5,0,0,1,32,67.47Z"/><rect class="cls-2" x="25" y="34.47" width="3" height="32"/><path class="cls-1" d="M46,67.47a1.5,1.5,0,0,1-1.5-1.5V35a1.5,1.5,0,0,1,3,0V66A1.5,1.5,0,0,1,46,67.47Z"/><rect class="cls-2" x="50" y="34.47" width="3" height="32"/><polygon class="cls-3" points="14.25 26.32 67.33 26.32 40.24 7.32 14.25 26.32"/></g></g></svg>