<svg xmlns="http://www.w3.org/2000/svg" viewBox="0 0 68 55"><defs><style>.cls-1{fill:#ed8569;}.cls-2{fill:#333;}.cls-3{fill:#87d3f9;}</style></defs><title>Ресурс 1</title><g id="Слой_2" data-name="Слой 2"><g id="icon"><path class="cls-1" d="M41.21,37.75a10.25,10.25,0,0,1,0-20.5"/><path class="cls-2" d="M68,48.5A6.5,6.5,0,0,1,61.5,55H6.5A6.5,6.5,0,0,1,0,48.5V6.5A6.5,6.5,0,0,1,6.5,0h55A6.5,6.5,0,0,1,68,6.5Zm-3-42A3.5,3.5,0,0,0,61.5,3H6.5A3.5,3.5,0,0,0,3,6.5v42A3.5,3.5,0,0,0,6.5,52h55A3.5,3.5,0,0,0,65,48.5Z"/><path class="cls-2" d="M66.25,35H39.75A1.73,1.73,0,0,1,38,33.5v-12A1.73,1.73,0,0,1,39.75,20h26.5a1.5,1.5,0,0,1,0,3H41v9H66.25a1.5,1.5,0,0,1,0,3Z"/><path class="cls-2" d="M60.25,8h-4a1,1,0,0,1,0-2h4a1,1,0,0,1,0,2Zm-8,0h-4a1,1,0,0,1,0-2h4a1,1,0,0,1,0,2Zm-8,0h-4a1,1,0,0,1,0-2h4a1,1,0,0,1,0,2Zm-8,0h-4a1,1,0,0,1,0-2h4a1,1,0,0,1,0,2Zm-8,0h-4a1,1,0,0,1,0-2h4a1,1,0,0,1,0,2Zm-8,0h-4a1,1,0,0,1,0-2h4a1,1,0,0,1,0,2Zm-8,0h-4a1,1,0,0,1,0-2h4a1,1,0,0,1,0,2Z"/><rect class="cls-3" x="43.25" y="25" width="20" height="5.33"/></g></g></svg>